<svg width="127" height="24" viewBox="0 0 127 24" fill="none" xmlns="http://www.w3.org/2000/svg">
<path d="M16.875 15.3813L14.375 13.925C14.1074 13.7656 13.7898 13.7118 13.4846 13.7742C13.1794 13.8366 12.9085 14.0108 12.725 14.2625L11.3625 16.075C10.1117 15.6292 8.96229 14.9387 7.98124 14.0438C7.08567 13.0609 6.39512 11.9093 5.94999 10.6563L7.76249 9.30005C8.01425 9.11654 8.1884 8.84564 8.25083 8.54043C8.31326 8.23521 8.25947 7.91768 8.09999 7.65006L6.61874 5.12505C6.5337 4.96823 6.41607 4.83143 6.27377 4.72384C6.13147 4.61626 5.96778 4.54037 5.79372 4.50129C5.61965 4.46222 5.43924 4.46087 5.26461 4.49731C5.08997 4.53374 4.92516 4.60713 4.78125 4.71255L3.92499 5.33755C3.49707 5.63701 3.14795 6.03558 2.90743 6.4992C2.66691 6.96283 2.54213 7.47776 2.54374 8.00006C2.48212 9.51883 2.75276 11.0327 3.33677 12.4361C3.92078 13.8394 4.80408 15.0984 5.925 16.1251C6.95165 17.246 8.2106 18.1293 9.61395 18.7133C11.0173 19.2973 12.5312 19.5679 14.05 19.5063C14.5723 19.5079 15.0872 19.3831 15.5509 19.1426C16.0145 18.9021 16.413 18.553 16.7125 18.125L17.3375 17.2688C17.4502 17.1205 17.5284 16.9489 17.5663 16.7666C17.6042 16.5842 17.6009 16.3956 17.5566 16.2147C17.5122 16.0338 17.428 15.8651 17.3101 15.7209C17.1922 15.5767 17.0435 15.4607 16.875 15.3813Z" fill="#03050F"/>
<path d="M31.1485 19.792C30.3485 18.5973 29.7885 17.456 29.4685 16.368C29.1592 15.2693 29.0045 14.1333 29.0045 12.96C29.0045 11.7867 29.1592 10.656 29.4685 9.568C29.7885 8.46933 30.3485 7.32267 31.1485 6.128H33.5805C32.8125 7.248 32.2525 8.368 31.9005 9.488C31.5592 10.608 31.3885 11.7653 31.3885 12.96C31.3885 14.1547 31.5592 15.312 31.9005 16.432C32.2525 17.552 32.8125 18.672 33.5805 19.792H31.1485ZM39.3904 18.128C38.5264 18.128 37.7637 17.904 37.1024 17.456C36.441 17.008 35.929 16.3573 35.5664 15.504C35.2037 14.64 35.0224 13.6053 35.0224 12.4C35.0224 11.1947 35.2037 10.1653 35.5664 9.312C35.929 8.448 36.441 7.792 37.1024 7.344C37.7637 6.896 38.5264 6.672 39.3904 6.672C40.2544 6.672 41.0117 6.896 41.6624 7.344C42.3237 7.792 42.8357 8.448 43.1984 9.312C43.561 10.1653 43.7424 11.1947 43.7424 12.4C43.7424 13.6053 43.561 14.64 43.1984 15.504C42.8357 16.3573 42.3237 17.008 41.6624 17.456C41.0117 17.904 40.2544 18.128 39.3904 18.128ZM37.4384 12.4C37.4384 13.616 37.609 14.5173 37.9504 15.104C38.3024 15.68 38.7824 15.968 39.3904 15.968C39.9984 15.968 40.473 15.68 40.8144 15.104C41.1664 14.5173 41.3424 13.616 41.3424 12.4C41.3424 11.184 41.1664 10.288 40.8144 9.712C40.473 9.12533 39.9984 8.832 39.3904 8.832C38.7824 8.832 38.3024 9.12533 37.9504 9.712C37.609 10.288 37.4384 11.184 37.4384 12.4ZM47.6951 10.304H45.3111V8.224H45.9031C46.6285 8.224 47.1565 8.11733 47.4871 7.904C47.8178 7.69067 48.0418 7.32267 48.1591 6.8H50.0631V18H47.6951V10.304ZM52.0332 19.792C52.8012 18.672 53.3559 17.552 53.6972 16.432C54.0492 15.312 54.2252 14.1547 54.2252 12.96C54.2252 11.7653 54.0492 10.608 53.6972 9.488C53.3559 8.368 52.8012 7.248 52.0332 6.128H54.4652C55.2652 7.32267 55.8199 8.46933 56.1292 9.568C56.4492 10.656 56.6092 11.7867 56.6092 12.96C56.6092 14.1333 56.4492 15.2693 56.1292 16.368C55.8199 17.456 55.2652 18.5973 54.4652 19.792H52.0332ZM67.7747 16.016H62.4787V14.128L67.1667 6.8H69.9987V14H71.3107V16.016H69.9987V18H67.7747V16.016ZM67.7747 14V9.44L64.8787 14H67.7747ZM74.7482 10.304H72.3642V8.224H72.9562C73.6816 8.224 74.2096 8.11733 74.5402 7.904C74.8709 7.69067 75.0949 7.32267 75.2122 6.8H77.1162V18H74.7482V10.304ZM81.7264 10.304H79.3424V8.224H79.9344C80.6597 8.224 81.1877 8.11733 81.5184 7.904C81.849 7.69067 82.073 7.32267 82.1904 6.8H84.0944V18H81.7264V10.304ZM94.3961 18.128C93.6281 18.128 92.9241 17.952 92.2841 17.6C91.6441 17.248 91.1375 16.7627 90.7641 16.144C90.3908 15.5147 90.2041 14.8107 90.2041 14.032C90.2041 13.52 90.3055 12.9973 90.5081 12.464C90.7108 11.9307 91.0575 11.3013 91.5481 10.576L94.0761 6.8H96.8761L94.6041 10.144H94.7801C95.4841 10.144 96.1295 10.3093 96.7161 10.64C97.3028 10.9707 97.7668 11.4347 98.1081 12.032C98.4495 12.6187 98.6201 13.28 98.6201 14.016C98.6201 14.784 98.4335 15.4827 98.0601 16.112C97.6868 16.7307 97.1748 17.2213 96.5241 17.584C95.8841 17.9467 95.1748 18.128 94.3961 18.128ZM92.5721 14.048C92.5721 14.6027 92.7481 15.0613 93.1001 15.424C93.4521 15.7867 93.8895 15.968 94.4121 15.968C94.9348 15.968 95.3721 15.7867 95.7241 15.424C96.0761 15.0613 96.2521 14.6027 96.2521 14.048C96.2521 13.4933 96.0761 13.0347 95.7241 12.672C95.3721 12.3093 94.9348 12.128 94.4121 12.128C93.8895 12.128 93.4521 12.3093 93.1001 12.672C92.7481 13.0347 92.5721 13.4933 92.5721 14.048ZM104.6 18.128C103.736 18.128 102.973 17.904 102.312 17.456C101.65 17.008 101.138 16.3573 100.776 15.504C100.413 14.64 100.232 13.6053 100.232 12.4C100.232 11.1947 100.413 10.1653 100.776 9.312C101.138 8.448 101.65 7.792 102.312 7.344C102.973 6.896 103.736 6.672 104.6 6.672C105.464 6.672 106.221 6.896 106.872 7.344C107.533 7.792 108.045 8.448 108.408 9.312C108.77 10.1653 108.952 11.1947 108.952 12.4C108.952 13.6053 108.77 14.64 108.408 15.504C108.045 16.3573 107.533 17.008 106.872 17.456C106.221 17.904 105.464 18.128 104.6 18.128ZM102.648 12.4C102.648 13.616 102.818 14.5173 103.16 15.104C103.512 15.68 103.992 15.968 104.6 15.968C105.208 15.968 105.682 15.68 106.024 15.104C106.376 14.5173 106.552 13.616 106.552 12.4C106.552 11.184 106.376 10.288 106.024 9.712C105.682 9.12533 105.208 8.832 104.6 8.832C103.992 8.832 103.512 9.12533 103.16 9.712C102.818 10.288 102.648 11.184 102.648 12.4ZM115.109 18.128C114.245 18.128 113.482 17.904 112.821 17.456C112.16 17.008 111.648 16.3573 111.285 15.504C110.922 14.64 110.741 13.6053 110.741 12.4C110.741 11.1947 110.922 10.1653 111.285 9.312C111.648 8.448 112.16 7.792 112.821 7.344C113.482 6.896 114.245 6.672 115.109 6.672C115.973 6.672 116.73 6.896 117.381 7.344C118.042 7.792 118.554 8.448 118.917 9.312C119.28 10.1653 119.461 11.1947 119.461 12.4C119.461 13.6053 119.28 14.64 118.917 15.504C118.554 16.3573 118.042 17.008 117.381 17.456C116.73 17.904 115.973 18.128 115.109 18.128ZM113.157 12.4C113.157 13.616 113.328 14.5173 113.669 15.104C114.021 15.68 114.501 15.968 115.109 15.968C115.717 15.968 116.192 15.68 116.533 15.104C116.885 14.5173 117.061 13.616 117.061 12.4C117.061 11.184 116.885 10.288 116.533 9.712C116.192 9.12533 115.717 8.832 115.109 8.832C114.501 8.832 114.021 9.12533 113.669 9.712C113.328 10.288 113.157 11.184 113.157 12.4ZM123.414 10.304H121.03V8.224H121.622C122.347 8.224 122.875 8.11733 123.206 7.904C123.537 7.69067 123.761 7.32267 123.878 6.8H125.782V18H123.414V10.304Z" fill="#03050F"/>
</svg>
